# xmcd
#
# Track frame offsets: 
#        150
#        14942
#        38471
#        58400
#        72262
#        84597
#        99455
#        113983
#        126073
#        150614
#        162884
#
# Disc length: 2339 seconds
#
# Revision: 1
# Processed by: cddbd v1.5.2PL0 Copyright (c) Steve Scherf et al.
# Submitted via: ExactAudioCopy v0.99pb4
#
DISCID=9009210b
DTITLE=Michael Card - An Invitation To Awe - Disc 2
DYEAR=2011
DGENRE=Contemporary Christian
TTITLE0=Mediation #4 Selah
TTITLE1=The Prophet
TTITLE2=Then They Will Know
TTITLE3=Recapture Me
TTITLE4=Song Of Gomer
TTITLE5=Who Can Abide?
TTITLE6=Valley of Dry Bones
TTITLE7=Will You Not Listen?
TTITLE8=The Kingdom
TTITLE9=I Will Bring You Home
TTITLE10=Malachi
EXTD=
EXTT0=
EXTT1=
EXTT2=
EXTT3=
EXTT4=
EXTT5=
EXTT6=
EXTT7=
EXTT8=
EXTT9=
EXTT10=
PLAYORDER=
